<svg xmlns="http://www.w3.org/2000/svg" xmlns:xlink="http://www.w3.org/1999/xlink" width="148px" height="39px" viewBox="0 0 148 39" version="1.1"><link xmlns="" type="text/css" rel="stylesheet" id="dark-mode-general-link"/><link xmlns="" type="text/css" rel="stylesheet" id="dark-mode-custom-link"/><style xmlns="" lang="en" type="text/css" id="dark-mode-custom-style"/>
    <g id="Group-14" stroke="none" stroke-width="1" fill="none" fill-rule="evenodd">
        <path d="M0.190227894,15.7775832 C-0.00539653601,16.715359 -0.0795989061,17.6729422 0.116025524,18.5028021 C0.299507748,19.2705079 0.953163172,19.3394921 1.63919781,19.2623117 C3.96240656,19.0014011 6.15070191,18.4939229 9.17141294,17.384028 C9.48171376,17.269965 9.72051048,16.8376182 9.5565907,16.4824518 C6.61075661,10.1277058 5.95103008,5.19089317 5.77766636,1.55658494 C5.73786691,0.726725044 5.26567001,0.719211909 4.95806746,1.29772329 C3.65682771,3.73607706 0.684010939,13.4082137 0.190227894,15.7775832 Z" id="Shape" fill="#00ADFE"/>
        <path d="M12.444412,16.1750963 C16.0358067,14.6041681 18.6193984,13.206042 22.874567,9.86338004 C23.4472744,9.41395797 23.977484,8.89008757 23.5221513,8.05954466 C22.5433546,6.27483363 12.2717229,1.28884413 9.04729262,0.333992995 C8.10559708,0.0546409807 7.40337284,-4.07757161e-13 7.39730173,1.18161121 C7.37639015,6.30420315 8.98320875,11.3345884 11.1397995,15.9155517 C11.4514494,16.5787566 11.8049225,16.4564974 12.444412,16.1750963 Z" id="Shape" fill="#FF638E"/>
        <path d="M25.0986144,12.6767075 C24.8888241,17.3894921 23.5606016,25.5282662 23.2206199,30.4903503 C23.2078031,30.6706655 23.1956609,30.8550788 23.1916135,31.0367601 C23.1659799,32.3426795 22.3086053,31.8365674 21.7750228,31.2826445 C17.5495351,26.9004378 14.7271468,22.4253415 12.5604376,18.6674081 C12.3648131,18.3259019 12.5968642,17.8334501 12.9854148,17.660648 C16.0830264,16.2789142 19.7863993,14.6649562 23.3191067,11.9171979 C24.4307931,11.0525044 25.1687694,11.1112434 25.0986144,12.6767075 Z" id="Shape" fill="#A550F0"/>
        <path d="M20.3860893,32.2853065 C16.1363172,27.6408231 13.0852507,23.2244658 10.9063993,19.1830823 C10.5731632,18.5683713 10.4342024,18.717268 9.80078396,18.9488091 C7.23203282,19.888634 5.21372835,20.3100525 3.08546946,20.7198599 C2.35221513,20.8612434 2.71445761,21.6077758 2.99440292,22.0291944 C5.13075661,25.2571103 16.9424248,31.8734501 19.6508113,32.6056392 C19.9159161,32.6766725 20.8899909,32.8358144 20.3860893,32.2853065 Z" id="Shape" fill="#FF9700"/>
        <path d="M21.9355697,32.6568651 C22.1110347,33.018636 22.3423977,33.349735 22.6209298,33.6376708 C23.1490227,34.2002375 23.8328601,34.5878665 24.5825706,34.7496147 C24.9490065,34.822508 25.322315,34.853892 25.6956062,34.8431874 C26.4470738,34.822697 27.2025889,34.6348687 27.9446126,34.3917163 C28.1301185,34.3343433 28.3142753,34.2598949 28.4984321,34.1868126 C28.6825889,34.1137303 28.8640474,34.0345009 29.0448314,33.9545884 C29.2256153,33.874676 29.4050501,33.7831524 29.584485,33.6902627 L29.8482407,33.5468301 L30.1693345,33.3876883 C31.0294075,32.9717338 32.0021331,32.6124694 33.1063993,32.5680736 C33.6744675,32.5431643 34.2427399,32.6123769 34.7887694,32.7729772 C36.3653404,33.2494858 37.5981697,34.4990338 38.067165,36.0958319 C38.2077333,36.545687 38.2911511,37.0118357 38.3154057,37.4830298 C38.3291306,37.7126357 38.3266509,37.9429408 38.3079854,38.1721891 C38.293946,38.4025401 38.2594029,38.631138 38.2047767,38.8552014 C38.1872626,38.9110582 38.1400194,38.9520554 38.0828229,38.9610318 C38.0256263,38.9700083 37.9683424,38.9454156 37.9349499,38.8975482 L37.9302279,38.890035 C37.458031,38.1482837 36.9743665,37.4707356 36.4657429,36.9092995 C35.9571194,36.3478634 35.4066727,35.9257618 34.870392,35.6949037 C34.6096313,35.5826484 34.336152,35.5035004 34.0561896,35.4592644 C33.7660737,35.4134636 33.4728735,35.3906274 33.1792525,35.3909632 C32.4733976,35.3887314 31.7700953,35.4768555 31.0860711,35.6532399 L30.8094986,35.7317863 L30.4722151,35.821944 C30.249608,35.8861471 30.0303737,35.9537653 29.8023701,36.0063573 C29.5743665,36.0589492 29.3551322,36.1252014 29.1230811,36.1702802 C28.8910301,36.215359 28.6690975,36.267951 28.4323245,36.3000525 C27.5041203,36.4564623 26.5273473,36.4960771 25.5586691,36.326007 C24.5933637,36.1668651 23.6435734,35.7420315 22.944722,35.0877058 C22.2701019,34.4648567 21.819216,33.6325291 21.6630447,32.7217513 C21.6578738,32.6854663 21.6673245,32.6485997 21.6892716,32.6194415 C21.7112188,32.5902833 21.7438201,32.571281 21.7797448,32.5667075 C21.8411681,32.5563263 21.9020425,32.5879774 21.9294986,32.6445709 L21.9355697,32.6568651 Z" id="Shape" fill="#49D769" fill-rule="nonzero"/>
        <path d="M64.7172835,26.4585289 C64.7172835,28.4836602 62.8284959,29.4863222 61.007165,29.3551839 C58.4512306,29.1700876 57.3962078,28.3702802 56.0760802,27.0042557 C54.7559526,25.6382312 54.1002735,23.733993 54.1002735,21.2908581 L54.1002735,21.2075306 C54.1002735,21.1574431 54.1002735,21.1069002 54.1002735,21.0559019 L54.1002735,12.5182487 L52.8536737,12.5182487 C51.9382862,12.5182487 51.1881677,12.204063 50.6572835,11.6665324 C50.1263993,11.1290018 49.8336372,10.3872504 49.8336372,9.4604028 C49.823439,8.64025775 50.1354946,7.8496146 50.7011304,7.26246935 C51.240784,6.71605954 51.9969736,6.40255692 52.8536737,6.40255692 L54.0962261,6.40255692 L54.0962261,3.72446585 C54.0962261,2.63915937 54.4382315,1.72323993 55.0197083,1.06891419 C55.6241203,0.389316988 56.4754239,0 57.4650137,0 C58.4546035,0 59.3052325,0.389316988 59.9103191,1.06891419 C60.4917958,1.72323993 60.8338013,2.63984238 60.8338013,3.72446585 L60.8338013,6.39982487 L61.8456518,6.39982487 C62.7509207,6.39982487 63.6035734,6.63819615 64.2167548,7.20509632 C64.7604558,7.70711033 65.0984139,8.44203152 65.0984139,9.45903678 C65.0984139,10.4610158 64.757083,11.19662 64.2093345,11.702732 C63.5981768,12.2675832 62.748897,12.5168827 61.84835,12.5168827 L60.8364995,12.5168827 C60.8364995,14.9210858 60.6739289,18.6134501 60.8695533,20.9691594 C60.9768095,22.2627846 61.293856,23.4997198 62.1660711,23.8289317 C63.5961531,24.3691944 64.7172835,24.3623643 64.7172835,26.4585289 Z" id="Shape" fill="#00ADFE"/>
        <path d="M140.081933,14.037268 C139.468077,13.2354116 138.581696,12.6992469 137.395807,12.6992469 C136.209918,12.6992469 135.323537,13.2354116 134.709006,14.037268 C133.924485,15.0617863 133.558195,16.5145534 133.558195,17.8792119 C133.558195,19.2329422 133.930556,20.6515587 134.704959,21.6542207 C135.324211,22.450613 136.213291,22.9813135 137.392434,22.9813135 C138.571577,22.9813135 139.460656,22.450613 140.079234,21.6542207 C140.857685,20.6515587 141.230046,19.2329422 141.230046,17.8792119 C141.230046,16.5131874 140.863081,15.0617863 140.07856,14.037268 L140.081933,14.037268 Z M137.395807,6.34791594 C140.423938,6.34791594 143.008879,7.65110333 144.867311,9.68579685 C146.823555,11.8290893 147.970319,14.7858494 147.970319,17.881944 C147.970319,21.0490718 146.863355,23.9723643 144.93072,26.07331 C143.083756,28.080683 140.49072,29.3346935 137.395132,29.3346935 C134.299544,29.3346935 131.706509,28.080683 129.85887,26.07331 C127.92691,23.9723643 126.823318,21.0490718 126.823318,17.881944 C126.823318,14.7885814 127.970082,11.8318214 129.926326,9.68579685 C131.782735,7.6497373 134.367001,6.34791594 137.395807,6.34791594 Z" id="Shape" fill="#00ADFE"/>
        <path d="M94.2228441,25.6416462 L94.2228441,10.5771278 C94.2228441,9.49250438 94.5648496,8.57590193 95.1463263,7.92225919 C95.7534366,7.23924694 96.6027165,6.852662 97.5916317,6.852662 C98.4442844,6.852662 99.1579763,7.09444834 99.6976299,7.54113835 C100.003929,7.79521393 100.251853,8.1138349 100.424139,8.47481611 C100.984506,7.98374457 101.612333,7.57766853 102.287967,7.26929947 C103.248331,6.83543982 104.288769,6.61310661 105.340383,6.61702277 C107.548971,6.5886023 109.661892,7.52817343 111.135588,9.19402802 C111.853454,8.49349209 112.678257,7.9148292 113.578195,7.48035026 C114.729006,6.92028021 115.93918,6.61702277 117.002972,6.61702277 C119.472562,6.61702277 121.555624,7.37243433 123.012689,8.8252014 C124.410392,10.2185464 125.214476,12.2320665 125.214476,14.8138529 L125.214476,25.6416462 C125.214476,26.7262697 124.873145,27.6428722 124.290994,28.2971979 C123.683883,28.9767951 122.835278,29.3661121 121.845688,29.3661121 C120.856098,29.3661121 120.005469,28.9767951 119.398359,28.2971979 C118.816882,27.6428722 118.474877,26.7262697 118.474877,25.6416462 L118.474877,15.7946585 C118.474877,14.7817513 118.20505,13.9314011 117.718013,13.3494746 C117.267402,12.811944 116.613072,12.4977583 115.799544,12.4977583 C114.967803,12.4977583 114.304029,12.8112609 113.848696,13.3481086 C113.355588,13.929352 113.085761,14.7824343 113.085761,15.7946585 L113.085761,25.6416462 C113.085761,26.7262697 112.743756,27.6428722 112.162279,28.2971979 C111.555169,28.9767951 110.705889,29.3661121 109.716974,29.3661121 C108.728058,29.3661121 107.87608,28.9767951 107.271668,28.2971979 C106.689517,27.6428722 106.348186,26.7262697 106.348186,25.6416462 L106.348186,15.7946585 C106.348186,14.7817513 106.078359,13.9314011 105.591322,13.3494746 C105.140711,12.811944 104.486381,12.4977583 103.672853,12.4977583 C102.760839,12.4977583 102.104485,12.7907706 101.676809,13.2948336 C101.187748,13.871979 100.958396,14.7462347 100.958396,15.7946585 L100.958396,25.6416462 C100.958396,26.7262697 100.61639,27.6428722 100.034913,28.2971979 C99.4278031,28.9767951 98.5791978,29.3661121 97.589608,29.3661121 C96.6000182,29.3661121 95.7493892,28.9767951 95.1443026,28.2971979 C94.5648496,27.6428722 94.2228441,26.7262697 94.2228441,25.6416462 Z" id="Shape" fill="#00ADFE"/>
        <path d="M88.9274932,6.39982487 C89.9013911,6.41090913 90.8328075,6.80528692 91.5245761,7.49947461 C92.2085871,8.17497373 92.6450319,9.09908932 92.6450319,10.086042 C92.6440803,11.0982279 92.2526739,12.07 91.5542571,12.7941856 C90.8664276,13.516679 89.9185898,13.925798 88.9274932,13.927986 C87.933856,13.927986 87.0016044,13.4758319 86.3202917,12.7668651 C85.638979,12.0578984 85.210629,11.1044133 85.210629,10.083993 C85.210629,9.11274956 85.6511212,8.18248687 86.3412033,7.50220665 C87.0157703,6.83285464 87.9432999,6.39777583 88.9274932,6.39777583 L88.9274932,6.39982487 Z M85.5593801,25.6129597 L85.5593801,19.2507005 C85.5593801,18.1660771 85.9013856,17.2494746 86.4821878,16.5958319 C87.0892981,15.9128196 87.9385779,15.5262347 88.9274932,15.5262347 C89.9164084,15.5262347 90.7683865,15.9155517 91.3734731,16.5958319 C91.9549499,17.2501576 92.2969553,18.1667601 92.2969553,19.2507005 L92.2969553,25.6129597 C92.2969553,26.6982662 91.9556244,27.6141856 91.3741477,28.2685114 C90.7670374,28.9515236 89.9177575,29.3381086 88.9281677,29.3381086 C87.9385779,29.3381086 87.087949,28.9487916 86.4828624,28.2685114 C85.900711,27.6162347 85.5593801,26.7003152 85.5593801,25.6129597 Z" id="Shape" fill="#00ADFE"/>
        <path d="M83.0769736,11.0484063 C83.074469,11.8536467 82.7760513,12.6291179 82.2398359,13.2238004 C81.7229626,13.8073737 80.9862561,14.1421239 80.2120875,14.1451839 C79.6366819,14.1451839 78.9304102,13.8132399 78.1209298,13.4355342 C77.1981222,13.0011384 76.1255606,12.4991243 75.2142206,12.4991243 C74.800711,12.4991243 74.4256518,12.591331 74.1814585,12.7928196 C74.0053965,12.9383012 73.8947675,13.1636953 73.8947675,13.481979 C73.8947675,14.1035201 75.1987056,14.6041681 76.7893345,15.2147811 C79.7648496,16.3567776 83.5788514,17.8218389 83.5788514,22.1500876 C83.5788514,24.2421541 82.6924704,26.0808231 81.1308478,27.3840105 C79.6468004,28.6223117 77.5596901,29.3647461 75.0597448,29.3647461 C73.2626983,29.3647461 70.9934549,28.8012609 69.3002917,27.855289 C67.7811668,27.0056217 66.6930902,25.8301576 66.6930902,24.4245184 C66.6930902,23.8098074 67.0303737,22.8863748 67.6644667,22.2218039 C68.1589243,21.7054466 68.8328168,21.3270578 69.6740018,21.3270578 C70.8531449,21.3270578 71.6801641,21.8003853 72.5469827,22.2962522 C73.3564631,22.7607005 74.2124886,23.2524694 75.4476208,23.2524694 C76.1619872,23.2524694 76.5997812,23.1575306 76.833856,22.9710683 C77.0112671,22.8303678 77.0773747,22.5790193 77.0773747,22.23 C77.0773747,21.6309982 75.79165,21.1371804 74.2178851,20.5381786 C71.2342753,19.3975482 67.3892434,17.9277058 67.3892434,13.5591594 C67.3892434,11.4281611 68.2412215,9.6332049 69.6935643,8.3682662 C71.145907,7.1033275 73.1642115,6.38753065 75.5231723,6.38753065 C77.156299,6.38753065 79.2892799,6.82465849 80.8475296,7.73647986 C82.1528168,8.49394046 83.0769736,9.58880911 83.0769736,11.0484063 Z" id="Shape" fill="#00ADFE"/>
        <path d="M41.5013856,14.0700525 C40.8875296,13.2681961 40.000474,12.7320315 38.8145852,12.7320315 C37.6286964,12.7320315 36.7423154,13.2681961 36.1284594,14.0700525 C35.343938,15.0945709 34.9769736,16.547338 34.9769736,17.9119965 C34.9769736,19.2650438 35.3493345,20.6843433 36.1277849,21.6870053 C36.7463628,22.4847636 37.6361167,23.0175131 38.8145852,23.0175131 C39.9930538,23.0175131 40.8834822,22.4868126 41.5020602,21.6904203 C42.2798359,20.6877583 42.6528715,19.2684588 42.6528715,17.9154116 C42.6528715,16.549387 42.285907,15.097986 41.5013856,14.0734676 L41.5013856,14.0700525 Z M38.8145852,6.38206655 C41.8433911,6.38206655 44.4276572,7.68525394 46.2860893,9.71994746 C48.2423336,11.8632399 49.3890975,14.82 49.3890975,17.9160946 C49.3890975,21.0832224 48.2821331,24.0065149 46.3494986,26.1067776 C44.5038833,28.1121016 41.9101732,29.3695271 38.8145852,29.3695271 C35.7189973,29.3695271 33.1259617,28.1155166 31.2789973,26.1074606 C29.3463628,24.0071979 28.2393984,21.0839054 28.2393984,17.9167776 C28.2393984,14.8234151 29.3861623,11.866655 31.3424066,9.72063047 C33.2021878,7.68525394 35.786454,6.38206655 38.8145852,6.38206655 Z" id="Shape" fill="#00ADFE"/>
    </g>
</svg>